<svg width="131" height="100" viewBox="0 0 131 100" fill="none" xmlns="http://www.w3.org/2000/svg">
<path fill-rule="evenodd" clip-rule="evenodd" d="M81.1947 99.5342C67.0769 99.5342 53.567 93.4704 44.1259 82.9602C43.4351 82.2694 43.5118 81.1181 44.2794 80.4272C44.9702 79.8131 46.1215 79.8131 46.7356 80.5807C55.5627 90.3289 68.0688 95.9272 81.1949 95.9272C106.673 95.9272 127.393 75.2084 127.393 49.7291C127.393 24.2511 106.674 3.53096 81.1949 3.53096C68.0741 3.53096 55.5637 9.13418 46.7356 18.9535C46.1216 19.6443 44.9702 19.7211 44.2794 19.0302C43.5118 18.4162 43.4351 17.2648 44.1259 16.574C53.567 5.98155 67.0717 0 81.1947 0C108.669 0 131.001 22.3314 131.001 49.7286C131.001 77.203 108.669 99.5342 81.1947 99.5342Z" fill="black"/>
<path fill-rule="evenodd" clip-rule="evenodd" d="M81.1938 90.7841C58.5558 90.7841 40.1387 72.3669 40.1387 49.7289C40.1387 27.091 58.5558 8.67383 81.1938 8.67383C103.832 8.67383 122.249 27.091 122.249 49.7289C122.249 72.3669 103.832 90.7841 81.1938 90.7841ZM81.1938 12.2763C60.5509 12.2763 43.7411 29.0809 43.7411 49.7289C43.7411 70.3718 60.5457 87.1816 81.1938 87.1816C101.837 87.1816 118.646 70.377 118.646 49.7289C118.646 29.0861 101.842 12.2763 81.1938 12.2763Z" fill="black"/>
<path fill-rule="evenodd" clip-rule="evenodd" d="M81.1942 20.5668C80.1963 20.5668 79.4287 19.7224 79.4287 18.7247V14.7332C79.4287 13.7354 80.1963 12.9678 81.1942 12.9678C82.1921 12.9678 82.9597 13.7353 82.9597 14.7332V18.7247C82.9597 19.7225 82.1921 20.5668 81.1942 20.5668Z" fill="black"/>
<path fill-rule="evenodd" clip-rule="evenodd" d="M89.1774 21.5652H88.7169C87.7958 21.2581 87.2584 20.2603 87.4887 19.3392L88.4866 15.5013C88.7936 14.5035 89.7147 13.9662 90.7125 14.1965C91.6336 14.4267 92.2477 15.4246 91.9406 16.4224L90.9428 20.2603C90.7125 21.0279 90.0218 21.5652 89.1774 21.5652Z" fill="black"/>
<path fill-rule="evenodd" clip-rule="evenodd" d="M96.694 24.7052C96.387 24.7052 96.08 24.6284 95.773 24.3982C94.9286 23.9376 94.6216 22.863 95.1589 22.0187L97.1545 18.5646C97.6151 17.6436 98.6897 17.4133 99.6108 17.8738C100.455 18.3344 100.762 19.4858 100.225 20.3301L98.2292 23.7841C97.9222 24.3214 97.3081 24.7052 96.694 24.7052Z" fill="black"/>
<path fill-rule="evenodd" clip-rule="evenodd" d="M103.066 29.6179C102.605 29.6179 102.221 29.4644 101.837 29.0806C101.147 28.3898 101.147 27.2385 101.837 26.5476L104.678 23.7076C105.368 23.0168 106.52 23.0168 107.211 23.7076C107.901 24.3984 107.901 25.5497 107.211 26.2406L104.37 29.0806C103.987 29.4644 103.526 29.6179 103.066 29.6179Z" fill="black"/>
<path fill-rule="evenodd" clip-rule="evenodd" d="M108.054 36.0661C107.44 36.0661 106.826 35.6823 106.442 35.145C105.982 34.3007 106.289 33.1494 107.133 32.6888L110.587 30.6932C111.432 30.2326 112.583 30.4629 113.044 31.3072C113.504 32.2283 113.274 33.3029 112.353 33.7634L108.899 35.7591C108.668 35.9894 108.361 36.0661 108.054 36.0661Z" fill="black"/>
<path fill-rule="evenodd" clip-rule="evenodd" d="M111.125 43.5124C110.357 43.5124 109.59 42.9751 109.436 42.2075C109.129 41.2097 109.743 40.2119 110.664 39.9816L114.502 38.907C115.5 38.6767 116.498 39.2907 116.728 40.2118C116.959 41.2097 116.421 42.1307 115.423 42.4378L111.585 43.4356C111.432 43.5124 111.279 43.5124 111.125 43.5124Z" fill="black"/>
<path fill-rule="evenodd" clip-rule="evenodd" d="M116.19 51.5666H112.199C111.201 51.5666 110.356 50.7222 110.356 49.7245C110.356 48.7267 111.201 47.959 112.199 47.959H116.19C117.188 47.959 117.955 48.7266 117.955 49.7245C117.955 50.7224 117.188 51.5666 116.19 51.5666Z" fill="black"/>
<path fill-rule="evenodd" clip-rule="evenodd" d="M114.963 60.6232C114.886 60.6232 114.656 60.5464 114.502 60.5464L110.664 59.4718C109.743 59.2415 109.129 58.2437 109.436 57.3226C109.667 56.3248 110.664 55.7874 111.585 56.0178L115.423 57.0924C116.421 57.3226 116.959 58.3205 116.728 59.2415C116.498 60.0859 115.807 60.6232 114.963 60.6232Z" fill="black"/>
<path fill-rule="evenodd" clip-rule="evenodd" d="M111.508 69.0661C111.201 69.0661 110.894 68.9893 110.587 68.759L107.133 66.7634C106.289 66.3028 105.982 65.2282 106.442 64.3071C106.98 63.4628 108.054 63.1558 108.899 63.6931L112.353 65.6887C113.197 66.1493 113.504 67.3007 113.044 68.145C112.737 68.6823 112.122 69.0661 111.508 69.0661Z" fill="black"/>
<path fill-rule="evenodd" clip-rule="evenodd" d="M105.906 76.2761C105.445 76.2761 104.985 76.1226 104.678 75.7388L101.837 72.8988C101.147 72.208 101.147 71.1333 101.837 70.3658C102.528 69.675 103.68 69.675 104.37 70.3658L107.211 73.2058C107.901 73.8966 107.901 75.0479 107.211 75.7388C106.827 76.1226 106.366 76.2761 105.906 76.2761Z" fill="black"/>
<path fill-rule="evenodd" clip-rule="evenodd" d="M98.6907 81.881C98.0766 81.881 97.4626 81.4972 97.1555 80.9599L95.1599 77.5058C94.6226 76.6615 94.9296 75.5102 95.7739 75.0496C96.6183 74.5891 97.7696 74.8193 98.2302 75.7404L100.226 79.1945C100.686 80.0388 100.456 81.1133 99.535 81.5739C99.3047 81.7275 98.9977 81.881 98.6907 81.881Z" fill="black"/>
<path fill-rule="evenodd" clip-rule="evenodd" d="M90.2527 85.3343C89.4852 85.3343 88.7176 84.797 88.4873 84.0294L87.4894 80.1148C87.2591 79.1937 87.7965 78.1959 88.7943 77.9656C89.7154 77.6586 90.7132 78.2726 90.9435 79.1937L92.018 83.1084C92.2483 84.0295 91.711 85.0272 90.7132 85.2575C90.5597 85.3343 90.4062 85.3343 90.2527 85.3343Z" fill="black"/>
<path fill-rule="evenodd" clip-rule="evenodd" d="M81.1942 86.4853C80.1963 86.4853 79.4287 85.7177 79.4287 84.7198V80.7284C79.4287 79.7305 80.1963 78.9629 81.1942 78.9629C82.1921 78.9629 82.9597 79.7305 82.9597 80.7284V84.7198C82.9597 85.7176 82.1921 86.4853 81.1942 86.4853Z" fill="black"/>
<path fill-rule="evenodd" clip-rule="evenodd" d="M72.1367 85.3343C71.9832 85.3343 71.8296 85.3343 71.6761 85.2576C70.6783 85.0273 70.141 84.0294 70.3713 83.1084L71.4459 79.1937C71.6761 78.2727 72.674 77.6586 73.595 77.9656C74.5929 78.1959 75.1302 79.1937 74.8999 80.1148L73.8253 84.0294C73.6718 84.797 72.9043 85.3343 72.1367 85.3343Z" fill="black"/>
<path fill-rule="evenodd" clip-rule="evenodd" d="M63.6999 81.8809C63.3929 81.8809 63.0858 81.8041 62.7788 81.5739C61.9345 81.1133 61.6275 80.0387 62.1648 79.1944L64.1604 75.6636C64.6209 74.8193 65.6956 74.5122 66.6166 75.0495C67.461 75.5101 67.768 76.5847 67.2307 77.5058L65.2351 80.9598C64.928 81.4971 64.314 81.8809 63.6999 81.8809Z" fill="black"/>
<path fill-rule="evenodd" clip-rule="evenodd" d="M56.4074 76.2761C55.9468 76.2761 55.4863 76.1226 55.1792 75.7388C54.4884 75.048 54.4884 73.8967 55.1792 73.2058L58.0193 70.3658C58.7101 69.675 59.8614 69.675 60.5523 70.3658C61.2431 71.1333 61.2431 72.2079 60.5523 72.8988L57.7122 75.7388C57.3285 76.1226 56.8679 76.2761 56.4074 76.2761Z" fill="black"/>
<path fill-rule="evenodd" clip-rule="evenodd" d="M50.8806 69.0661C50.2666 69.0661 49.6525 68.6823 49.3454 68.145C48.8081 67.3007 49.1152 66.1494 49.9595 65.6888L53.4135 63.6932C54.2579 63.2326 55.4092 63.4629 55.8698 64.384C56.4071 65.2283 56.1 66.3028 55.2557 66.7634L51.7249 68.8358C51.4946 68.9126 51.1876 69.0661 50.8806 69.0661Z" fill="black"/>
<path fill-rule="evenodd" clip-rule="evenodd" d="M47.3513 60.6232C46.5837 60.6232 45.8929 60.0858 45.6626 59.2415C45.4323 58.3204 45.9696 57.3226 46.8907 57.0923L50.8053 56.0177C51.7264 55.7875 52.7242 56.3248 52.9545 57.3226C53.2615 58.2437 52.6475 59.2415 51.7264 59.4718L47.8117 60.5464C47.6582 60.5464 47.5048 60.6232 47.3513 60.6232Z" fill="black"/>
<path fill-rule="evenodd" clip-rule="evenodd" d="M50.1895 51.5666H46.1981C45.2002 51.5666 44.4326 50.7222 44.4326 49.7245C44.4326 48.7267 45.2002 47.959 46.1981 47.959H50.1895C51.1873 47.959 51.955 48.7266 51.955 49.7245C51.955 50.7224 51.1874 51.5666 50.1895 51.5666Z" fill="black"/>
<path fill-rule="evenodd" clip-rule="evenodd" d="M51.2639 43.5124C51.1104 43.5124 50.9569 43.5124 50.8034 43.4356L46.8887 42.4378C45.9677 42.1307 45.4303 41.2097 45.6606 40.2118C45.8909 39.2908 46.8887 38.6767 47.8098 38.907L51.7244 39.9816C52.6455 40.2118 53.2596 41.2097 52.9525 42.2075C52.799 42.9751 52.0315 43.5124 51.2639 43.5124Z" fill="black"/>
<path fill-rule="evenodd" clip-rule="evenodd" d="M54.3346 36.067C54.0276 36.067 53.7206 35.9903 53.4135 35.76L49.9595 33.7644C49.1152 33.3038 48.8081 32.2292 49.3454 31.3081C49.806 30.4638 50.8806 30.1568 51.8017 30.6941L55.2557 32.6897C56.1 33.1502 56.4071 34.3016 55.8698 35.1459C55.5627 35.6832 54.9487 36.067 54.3346 36.067Z" fill="black"/>
<path fill-rule="evenodd" clip-rule="evenodd" d="M59.2474 29.618C58.7869 29.618 58.3263 29.4644 58.0193 29.0806L55.1792 26.2406C54.4884 25.5498 54.4884 24.3985 55.1792 23.7076C55.8701 23.0167 57.0214 23.0168 57.7122 23.7076L60.5523 26.5477C61.2431 27.2385 61.2431 28.3898 60.5523 29.0806C60.1685 29.4644 59.708 29.618 59.2474 29.618Z" fill="black"/>
<path fill-rule="evenodd" clip-rule="evenodd" d="M65.6897 24.7052C65.0757 24.7052 64.4616 24.3214 64.1545 23.7841L62.1589 20.3301C61.6216 19.4858 61.9286 18.3344 62.773 17.8738C63.6173 17.4133 64.7686 17.6436 65.2292 18.5647L67.2248 22.0187C67.6854 22.863 67.4551 23.9376 66.534 24.4749C66.3038 24.6285 65.9967 24.7052 65.6897 24.7052Z" fill="black"/>
<path fill-rule="evenodd" clip-rule="evenodd" d="M73.1346 21.5651C72.367 21.5651 71.6761 21.1046 71.4459 20.2603L70.3713 16.4224C70.141 15.4245 70.6783 14.4267 71.6761 14.1965C72.5972 13.9662 73.595 14.5035 73.8253 15.5013L74.8999 19.3392C75.1302 20.2603 74.5929 21.2581 73.595 21.5651H73.1346Z" fill="black"/>
<path fill-rule="evenodd" clip-rule="evenodd" d="M81.1935 56.0179C77.7395 56.0179 74.8994 53.1779 74.8994 49.7238C74.8994 46.2697 77.7395 43.4297 81.1935 43.4297C84.6476 43.4297 87.4876 46.2697 87.4876 49.7238C87.4876 53.1779 84.6476 56.0179 81.1935 56.0179ZM81.1935 47.0373C79.6583 47.0373 78.507 48.2654 78.507 49.7238C78.507 51.259 79.6584 52.4103 81.1935 52.4103C82.6519 52.4103 83.8801 51.259 83.8801 49.7238C83.8801 48.2654 82.6519 47.0373 81.1935 47.0373Z" fill="black"/>
<path fill-rule="evenodd" clip-rule="evenodd" d="M81.1942 47.043C80.1963 47.043 79.4287 46.1987 79.4287 45.2775V27.015C79.4287 26.0171 80.1963 25.1729 81.1942 25.1729C82.1921 25.1729 82.9597 26.0172 82.9597 27.015V45.2775C82.9597 46.1986 82.1921 47.043 81.1942 47.043Z" fill="black"/>
<path fill-rule="evenodd" clip-rule="evenodd" d="M92.549 71.216C91.935 71.216 91.3209 70.909 91.0139 70.3717L81.8797 54.5653C81.4191 53.6443 81.6494 52.5697 82.5705 52.1091C83.4148 51.5718 84.4894 51.8788 84.95 52.7232L94.0841 68.5295C94.6214 69.3738 94.3144 70.5251 93.4701 70.9857C93.1631 71.1393 92.8561 71.216 92.549 71.216Z" fill="black"/>
<path fill-rule="evenodd" clip-rule="evenodd" d="M42.6665 25.9347H16.1903C15.1924 25.9347 14.4248 25.0904 14.4248 24.0926C14.4248 23.0948 15.1924 22.3271 16.1903 22.3271H42.6665C43.6644 22.3271 44.5086 23.0947 44.5086 24.0926C44.5086 25.0905 43.6643 25.9347 42.6665 25.9347Z" fill="black"/>
<path fill-rule="evenodd" clip-rule="evenodd" d="M35.5338 36.1442H8.98032C7.98247 36.1442 7.21484 35.3767 7.21484 34.3788C7.21484 33.3809 7.98242 32.6133 8.98032 32.6133H35.5338C36.4549 32.6133 37.2993 33.3809 37.2993 34.3788C37.2993 35.3766 36.455 36.1442 35.5338 36.1442Z" fill="black"/>
<path fill-rule="evenodd" clip-rule="evenodd" d="M28.319 46.4279H1.76547C0.767629 46.4279 0 45.5836 0 44.5858C0 43.588 0.767576 42.8203 1.76547 42.8203H28.319C29.3168 42.8203 30.0845 43.5879 30.0845 44.5858C30.0845 45.5837 29.3169 46.4279 28.319 46.4279Z" fill="black"/>
<path fill-rule="evenodd" clip-rule="evenodd" d="M28.319 56.6315H1.76547C0.767629 56.6315 0 55.864 0 54.8661C0 53.8682 0.767576 53.1006 1.76547 53.1006H28.319C29.3168 53.1006 30.0845 53.8682 30.0845 54.8661C30.0845 55.864 29.3169 56.6315 28.319 56.6315Z" fill="black"/>
<path fill-rule="evenodd" clip-rule="evenodd" d="M35.5338 66.9181H8.98032C7.98247 66.9181 7.21484 66.0738 7.21484 65.076C7.21484 64.1549 7.98242 63.3105 8.98032 63.3105H35.5338C36.4549 63.3105 37.2993 64.1549 37.2993 65.076C37.2993 66.0739 36.455 66.9181 35.5338 66.9181Z" fill="black"/>
<path fill-rule="evenodd" clip-rule="evenodd" d="M42.6665 77.1218H16.1903C15.1924 77.1218 14.4248 76.3542 14.4248 75.3563C14.4248 74.3585 15.1924 73.5908 16.1903 73.5908H42.6665C43.6644 73.5908 44.5086 74.3584 44.5086 75.3563C44.5086 76.3541 43.6643 77.1218 42.6665 77.1218Z" fill="black"/>
</svg>
