<svg width="53" height="53" viewBox="0 0 53 53" fill="none" xmlns="http://www.w3.org/2000/svg">
<path d="M26.4989 52.9977C41.1338 52.9977 52.9977 41.1338 52.9977 26.4989C52.9977 11.8639 41.1338 0 26.4989 0C11.8639 0 0 11.8639 0 26.4989C0 41.1338 11.8639 52.9977 26.4989 52.9977Z" fill="black"/>
<path d="M26.4967 37.1686C21.767 37.1686 17.035 37.1686 12.3052 37.1686C10.7059 37.1686 9.42773 35.8905 9.42773 34.2957C9.42773 29.092 9.42773 23.8884 9.42773 18.6848C9.42773 17.1173 10.715 15.8301 12.2824 15.8301C21.7533 15.8301 31.2242 15.8301 40.6951 15.8301C42.2944 15.8301 43.5726 17.0968 43.5748 18.7007C43.5794 23.9089 43.5794 29.1171 43.5748 34.323C43.5748 35.8814 42.2762 37.1663 40.7179 37.1663C35.979 37.1663 31.2379 37.1663 26.499 37.1663L26.4967 37.1686ZM26.5013 30.0717C31.4384 25.7817 36.3709 21.4985 41.3148 17.2016C41.0824 17.0991 40.8568 17.074 40.6267 17.074C31.2128 17.074 21.8012 17.074 12.3872 17.074C12.344 17.074 12.2984 17.0695 12.2551 17.074C12.1093 17.0923 11.9658 17.115 11.8222 17.1355C11.8222 17.1492 11.8222 17.1606 11.8199 17.1743C16.7114 21.4711 21.6029 25.7657 26.5013 30.0694V30.0717ZM11.5169 35.7196C11.7926 35.8722 12.066 35.9224 12.3508 35.9224C21.7807 35.9224 31.2105 35.9224 40.6404 35.9224C40.7406 35.9224 40.8432 35.9155 40.9434 35.9019C41.1371 35.8722 41.3239 35.8153 41.5061 35.6968C37.7788 33.2522 34.0698 30.819 30.3516 28.3812C29.0644 29.4999 27.7817 30.6139 26.4945 31.7303C25.2186 30.6094 23.9587 29.5021 22.6965 28.3949C18.967 30.8372 15.2511 33.2727 11.5169 35.7196ZM10.715 34.749C14.4035 32.3318 18.0579 29.9396 21.7237 27.5382C18.0898 24.3463 14.4719 21.1704 10.8426 17.9808C10.7195 18.2314 10.6717 18.4797 10.6717 18.7372C10.6717 23.9089 10.6717 29.0806 10.6717 34.2524C10.6717 34.405 10.6967 34.5577 10.715 34.749ZM31.3335 27.5291C34.9879 29.9259 38.6218 32.3113 42.2876 34.7149C42.3013 34.5372 42.3195 34.3936 42.3195 34.2501C42.3195 29.2766 42.3195 24.3053 42.3195 19.3318C42.3195 19.1108 42.3309 18.8898 42.3172 18.6688C42.3035 18.4797 42.2625 18.2906 42.2284 18.0674C38.5763 21.241 34.9629 24.3782 31.3335 27.5314V27.5291Z" fill="white" stroke="white" stroke-miterlimit="10"/>
</svg>
