<?xml version="1.0" encoding="UTF-8"?>
<svg id="Camada_1" data-name="Camada 1" xmlns="http://www.w3.org/2000/svg" viewBox="0 0 53 53">
  <defs>
    <style>
      .cls-1 {
        stroke: #f5f5f5;
        stroke-miterlimit: 10;
      }

      .cls-1, .cls-2 {
        fill: #f5f5f5;
      }

      .cls-2 {
        stroke-width: 0px;
      }
    </style>
  </defs>
  <path class="cls-2" d="m26.5,3c12.96,0,23.5,10.54,23.5,23.5s-10.54,23.5-23.5,23.5S3,39.46,3,26.5,13.54,3,26.5,3m0-3C11.86,0,0,11.86,0,26.5s11.86,26.5,26.5,26.5,26.5-11.86,26.5-26.5S41.13,0,26.5,0h0Z"/>
  <path class="cls-1" d="m26.5,36.69h-13.55c-1.53,0-2.75-1.22-2.75-2.74v-14.91c0-1.5,1.23-2.73,2.73-2.73h27.14c1.53,0,2.75,1.21,2.75,2.74,0,4.97,0,9.95,0,14.92,0,1.49-1.24,2.72-2.73,2.72h-13.58Zm0-6.78c4.72-4.1,9.43-8.19,14.15-12.29-.22-.1-.44-.12-.66-.12H13.02s-.08,0-.13,0c-.14.02-.28.04-.41.06,0,.01,0,.02,0,.04,4.67,4.1,9.34,8.21,14.02,12.32h0Zm-14.31,5.39c.26.15.52.19.8.19h27.02c.1,0,.19,0,.29-.02.18-.03.36-.08.54-.2-3.56-2.33-7.1-4.66-10.65-6.99-1.23,1.07-2.45,2.13-3.68,3.2-1.22-1.07-2.42-2.13-3.63-3.19-3.56,2.33-7.11,4.66-10.68,7Zm-.77-.93c3.52-2.31,7.01-4.59,10.51-6.89-3.47-3.05-6.93-6.08-10.39-9.13-.12.24-.16.48-.16.72v14.82c0,.15.02.29.04.47Zm19.69-6.9c3.49,2.29,6.96,4.57,10.46,6.86.01-.17.03-.31.03-.44v-14.25c0-.21.01-.42,0-.63-.01-.18-.05-.36-.08-.57-3.49,3.03-6.94,6.03-10.41,9.04h0Z"/>
</svg>