<?xml version="1.0" encoding="UTF-8"?>
<svg id="Camada_1" data-name="Camada 1" xmlns="http://www.w3.org/2000/svg" viewBox="0 0 53 53">
  <defs>
    <style>
      .cls-1 {
        fill: #fff;
        stroke: #fff;
        stroke-miterlimit: 10;
      }

      .cls-2 {
        fill: #dca2dc;
        stroke-width: 0px;
      }
    </style>
  </defs>
  <path class="cls-2" d="m26.5,53c14.63,0,26.5-11.86,26.5-26.5S41.13,0,26.5,0,0,11.86,0,26.5s11.86,26.5,26.5,26.5Z"/>
  <path class="cls-1" d="m26.5,37.17h-14.19c-1.6,0-2.88-1.28-2.88-2.87v-15.61c0-1.57,1.29-2.85,2.85-2.85h28.41c1.6,0,2.88,1.27,2.88,2.87,0,5.21,0,10.42,0,15.62,0,1.56-1.3,2.84-2.86,2.84h-14.22Zm0-7.1c4.94-4.29,9.87-8.57,14.81-12.87-.23-.1-.46-.13-.69-.13H12.39s-.09,0-.13,0c-.15.02-.29.04-.43.06,0,.01,0,.03,0,.04,4.89,4.3,9.78,8.59,14.68,12.9h0Zm-14.98,5.65c.28.15.55.2.83.2h28.29c.1,0,.2,0,.3-.02.19-.03.38-.09.56-.21-3.73-2.44-7.44-4.88-11.15-7.32-1.29,1.12-2.57,2.23-3.86,3.35-1.28-1.12-2.54-2.23-3.8-3.34-3.73,2.44-7.45,4.88-11.18,7.32Zm-.8-.97c3.69-2.42,7.34-4.81,11.01-7.21-3.63-3.19-7.25-6.37-10.88-9.56-.12.25-.17.5-.17.76v15.52c0,.15.03.31.04.5Zm20.62-7.22c3.65,2.4,7.29,4.78,10.95,7.19.01-.18.03-.32.03-.46v-14.92c0-.22.01-.44,0-.66-.01-.19-.05-.38-.09-.6-3.65,3.17-7.27,6.31-10.89,9.46h0Z"/>
</svg>