<svg width="83" height="99" viewBox="0 0 83 99" fill="none" xmlns="http://www.w3.org/2000/svg">
<path d="M23.2109 89.8699C23.2109 89.6737 23.2496 89.4794 23.3248 89.2981C23.3999 89.1169 23.5101 88.9522 23.649 88.8136C23.7878 88.6749 23.9527 88.565 24.134 88.4901C24.3154 88.4152 24.5098 88.3769 24.706 88.3772H33.4287C33.6284 88.3716 33.8271 88.4061 34.0132 88.4786C34.1992 88.5511 34.3689 88.6602 34.5121 88.7994C34.6553 88.9387 34.7691 89.1052 34.8468 89.2891C34.9245 89.4731 34.9645 89.6708 34.9645 89.8705C34.9645 90.0702 34.9245 90.2679 34.8468 90.4519C34.7691 90.6358 34.6553 90.8023 34.5121 90.9416C34.3689 91.0808 34.1992 91.1899 34.0132 91.2624C33.8271 91.335 33.6284 91.3694 33.4287 91.3638H24.706C24.5097 91.364 24.3153 91.3255 24.134 91.2505C23.9526 91.1754 23.7877 91.0654 23.6489 90.9267C23.51 90.788 23.3999 90.6232 23.3247 90.4419C23.2496 90.2606 23.2109 90.0662 23.2109 89.8699ZM58.1312 73.8737V93.1056C58.1294 94.5539 57.5531 95.9424 56.5288 96.9664C55.5046 97.9905 54.116 98.5664 52.6676 98.568H5.4636C4.01525 98.5664 2.62664 97.9905 1.60238 96.9664C0.578131 95.9424 0.00186521 94.5539 0 93.1056V5.4636C0.00155442 4.01504 0.577683 2.62626 1.60197 1.60197C2.62626 0.577682 4.01504 0.00155442 5.4636 0H52.6676C54.1162 0.00155442 55.505 0.577682 56.5293 1.60197C57.5535 2.62626 58.1297 4.01504 58.1312 5.4636V13.9679C65.1196 15.2753 71.4309 18.9852 75.9725 24.4552C80.514 29.9253 83 36.8112 83 43.9208C83 51.0305 80.514 57.9163 75.9725 63.3864C71.4309 68.8564 65.1196 72.5663 58.1312 73.8737ZM12.5808 2.98666C12.8964 4.27498 13.6349 5.42027 14.6782 6.23936C15.7215 7.05844 17.0093 7.50402 18.3357 7.50482H39.8049C41.1313 7.50402 42.4191 7.05844 43.4624 6.23936C44.5057 5.42027 45.2442 4.27498 45.5598 2.98666H12.5808ZM55.1446 74.2766C54.2825 74.3494 53.4111 74.394 52.5302 74.394C44.4816 74.344 36.7797 71.1117 31.106 65.4027C25.4324 59.6938 22.2479 51.9719 22.2479 43.9232C22.2479 35.8744 25.4324 28.1526 31.106 22.4436C36.7797 16.7346 44.4816 13.5023 52.5302 13.4523C53.4111 13.4523 54.2825 13.4914 55.1446 13.5697V5.46595C55.1439 4.80922 54.8828 4.17956 54.4184 3.71518C53.954 3.25079 53.3244 2.98963 52.6676 2.98901H48.5946C48.2574 5.07993 47.1877 6.98282 45.5766 8.35765C43.9656 9.73247 41.9181 10.4896 39.8002 10.4938H18.331C16.2127 10.4911 14.1645 9.7344 12.5532 8.35932C10.9418 6.98425 9.87249 5.08054 9.53664 2.98901H5.4636C4.80687 2.98963 4.17721 3.25079 3.71283 3.71518C3.24844 4.17956 2.98728 4.80922 2.98666 5.46595V81.5817H9.20309C9.40272 81.5761 9.60145 81.6106 9.78753 81.6831C9.9736 81.7557 10.1432 81.8648 10.2864 82.004C10.4296 82.1432 10.5434 82.3097 10.6211 82.4937C10.6989 82.6777 10.7389 82.8754 10.7389 83.0751C10.7389 83.2748 10.6989 83.4725 10.6211 83.6564C10.5434 83.8404 10.4296 84.0069 10.2864 84.1461C10.1432 84.2854 9.9736 84.3944 9.78753 84.467C9.60145 84.5395 9.40272 84.574 9.20309 84.5684H2.98666V93.1032C2.98759 93.7597 3.24889 94.3891 3.71324 94.8532C4.17759 95.3174 4.80707 95.5784 5.4636 95.579H52.6676C53.3242 95.5784 53.9536 95.3174 54.418 94.8532C54.8823 94.3891 55.1436 93.7597 55.1446 93.1032V84.5707H15.2575C14.8686 84.5598 14.4994 84.3977 14.2283 84.1189C13.9571 83.84 13.8054 83.4664 13.8054 83.0774C13.8054 82.6884 13.9571 82.3148 14.2283 82.036C14.4994 81.7571 14.8686 81.595 15.2575 81.5841H55.1446V74.2766ZM80.015 43.9202C80.015 38.4847 78.4032 33.1713 75.3834 28.6518C72.3636 24.1323 68.0714 20.6098 63.0496 18.5298C58.0279 16.4497 52.5021 15.9054 47.171 16.9659C41.8399 18.0263 36.943 20.6437 33.0995 24.4872C29.2561 28.3307 26.6386 33.2276 25.5782 38.5587C24.5178 43.8897 25.062 49.4155 27.1421 54.4373C29.2222 59.4591 32.7447 63.7512 37.2641 66.771C41.7836 69.7908 47.0971 71.4027 52.5326 71.4027C59.8187 71.394 66.8039 68.4957 71.956 63.3436C77.108 58.1916 80.0063 51.2063 80.015 43.9202ZM41.6664 27.2205C41.2776 27.2314 40.9084 27.3936 40.6372 27.6724C40.3661 27.9513 40.2144 28.3249 40.2144 28.7139C40.2144 29.1028 40.3661 29.4764 40.6372 29.7553C40.9084 30.0342 41.2776 30.1963 41.6664 30.2072C48.1824 30.2147 54.4294 32.8063 59.037 37.4137C63.6447 42.0211 66.2366 48.268 66.2444 54.784C66.2388 54.9836 66.2733 55.1824 66.3458 55.3684C66.4184 55.5545 66.5275 55.7242 66.6667 55.8673C66.8059 56.0105 66.9724 56.1243 67.1564 56.2021C67.3404 56.2798 67.538 56.3198 67.7377 56.3198C67.9375 56.3198 68.1351 56.2798 68.3191 56.2021C68.5031 56.1243 68.6696 56.0105 68.8088 55.8673C68.948 55.7242 69.0571 55.5545 69.1297 55.3684C69.2022 55.1824 69.2367 54.9836 69.2311 54.784C69.2214 47.4765 66.3142 40.471 61.1469 35.3039C55.9795 30.1368 48.974 27.2299 41.6664 27.2205ZM41.6664 34.4634C41.2776 34.4744 40.9084 34.6365 40.6372 34.9153C40.3661 35.1942 40.2144 35.5678 40.2144 35.9568C40.2144 36.3457 40.3661 36.7194 40.6372 36.9982C40.9084 37.2771 41.2776 37.4392 41.6664 37.4501C46.262 37.4554 50.6679 39.2833 53.9175 42.5329C57.1671 45.7825 58.995 50.1884 59.0003 54.784C58.9947 54.9836 59.0292 55.1824 59.1017 55.3684C59.1743 55.5545 59.2834 55.7242 59.4226 55.8673C59.5618 56.0105 59.7283 56.1243 59.9123 56.2021C60.0963 56.2798 60.294 56.3198 60.4937 56.3198C60.6934 56.3198 60.891 56.2798 61.075 56.2021C61.259 56.1243 61.4255 56.0105 61.5647 55.8673C61.7039 55.7242 61.813 55.5545 61.8856 55.3684C61.9581 55.1824 61.9926 54.9836 61.987 54.784C61.9808 49.3966 59.8379 44.2316 56.0284 40.4221C52.2189 36.6126 47.0539 34.4697 41.6664 34.4634ZM41.6664 41.7052C41.2702 41.7052 40.8902 41.8626 40.6101 42.1427C40.3299 42.4229 40.1725 42.8029 40.1725 43.1991C40.1725 43.5953 40.3299 43.9753 40.6101 44.2555C40.8902 44.5356 41.2702 44.693 41.6664 44.693C44.3422 44.6952 46.9077 45.759 48.7998 47.6509C50.692 49.5429 51.7561 52.1083 51.7586 54.784C51.753 54.9836 51.7875 55.1824 51.86 55.3684C51.9325 55.5545 52.0416 55.7242 52.1809 55.8673C52.3201 56.0105 52.4866 56.1243 52.6706 56.2021C52.8545 56.2798 53.0522 56.3198 53.2519 56.3198C53.4516 56.3198 53.6493 56.2798 53.8333 56.2021C54.0172 56.1243 54.1838 56.0105 54.323 55.8673C54.4622 55.7242 54.5713 55.5545 54.6438 55.3684C54.7164 55.1824 54.7508 54.9836 54.7452 54.784C54.7415 51.3164 53.3624 47.992 50.9104 45.54C48.4585 43.0881 45.134 41.7089 41.6664 41.7052ZM47.5035 54.784C47.5037 55.9385 47.1616 57.0672 46.5204 58.0272C45.8791 58.9873 44.9676 59.7356 43.901 60.1776C42.8344 60.6196 41.6607 60.7353 40.5284 60.5103C39.396 60.2852 38.3559 59.7293 37.5394 58.913C36.723 58.0968 36.1669 57.0567 35.9416 55.9244C35.7163 54.7921 35.8318 53.6184 36.2736 52.5517C36.7153 51.485 37.4635 50.5733 38.4234 49.9319C39.3833 49.2905 40.5119 48.9481 41.6664 48.9481C43.2138 48.9497 44.6974 49.565 45.7917 50.659C46.886 51.7531 47.5016 53.2366 47.5035 54.784ZM44.5169 54.784C44.5169 54.2202 44.3497 53.6692 44.0365 53.2004C43.7233 52.7317 43.2781 52.3663 42.7572 52.1506C42.2364 51.9348 41.6633 51.8784 41.1103 51.9884C40.5574 52.0983 40.0495 52.3698 39.6509 52.7685C39.2522 53.1671 38.9808 53.675 38.8708 54.2279C38.7608 54.7808 38.8172 55.354 39.033 55.8748C39.2487 56.3957 39.6141 56.8408 40.0828 57.154C40.5516 57.4673 41.1027 57.6344 41.6664 57.6344C42.4221 57.6335 43.1466 57.3329 43.6809 56.7985C44.2153 56.2642 44.5159 55.5397 44.5169 54.784Z" fill="black"/>
</svg>
