<?xml version="1.0" encoding="UTF-8"?>
<svg id="Camada_1" data-name="Camada 1" xmlns="http://www.w3.org/2000/svg" viewBox="0 0 53.55 52.92">
  <defs>
    <style>
      .cls-1 {
        fill: #41598e;
      }

      .cls-1, .cls-2 {
        stroke-width: 0px;
      }

      .cls-2 {
        fill: #fff;
      }
    </style>
  </defs>
  <path class="cls-1" d="m26.77,52.92c14.79,0,26.77-11.85,26.77-26.46S41.56,0,26.77,0,0,11.85,0,26.46s11.99,26.46,26.77,26.46Z"/>
  <path class="cls-2" d="m44.6,26.45c0,2.54.01,5.08,0,7.62-.03,5.86-4.18,9.92-10.11,9.91-5.14,0-10.29,0-15.43,0-6.03-.01-10.09-4.04-10.1-10.02,0-5.04-.01-10.08,0-15.13.02-5.94,4.13-9.98,10.16-9.98,5.18,0,10.36,0,15.54,0,5.65,0,9.83,4.03,9.94,9.63.05,2.65,0,5.31,0,7.96Zm-17.83-14.52c-2.65,0-5.29-.03-7.94,0-4.01.06-6.77,2.82-6.79,6.79-.03,5.12-.02,10.23,0,15.35.02,4.09,2.82,6.84,6.96,6.85,5.18.02,10.36.02,15.54,0,4.18-.01,6.96-2.79,6.97-6.96,0-5,0-10.01,0-15.01,0-4.3-2.76-7.01-7.13-7.03-2.53,0-5.06,0-7.6,0h0Z"/>
  <path class="cls-2" d="m36.51,26.44c0,5.28-4.41,9.6-9.77,9.58-5.31-.02-9.61-4.31-9.61-9.6s4.35-9.59,9.63-9.6c5.33,0,9.75,4.35,9.75,9.62Zm-9.72,6.33c3.48,0,6.36-2.84,6.39-6.3.04-3.4-2.89-6.29-6.37-6.32-3.49-.02-6.42,2.81-6.45,6.24-.03,3.48,2.89,6.38,6.42,6.38h0Z"/>
  <path class="cls-2" d="m38.36,16.99c.02,1.12-.87,2.04-2,2.06-1.14.02-2.04-.86-2.06-2-.02-1.15.85-2.05,1.99-2.06,1.13-.01,2.05.87,2.07,1.99h0Z"/>
</svg>