<svg width="54" height="53" viewBox="0 0 54 53" fill="none" xmlns="http://www.w3.org/2000/svg">
<path d="M26.7742 52.9185C41.5611 52.9185 53.5483 41.0723 53.5483 26.4592C53.5483 11.8462 41.5611 0 26.7742 0C11.9872 0 0 11.8462 0 26.4592C0 41.0723 11.9872 52.9185 26.7742 52.9185Z" fill="black"/>
<path d="M44.6028 26.4476C44.6028 28.9886 44.6166 31.5274 44.6028 34.0685C44.5682 39.9331 40.4224 43.987 34.4902 43.9802C29.3477 43.9733 24.2051 43.987 19.0625 43.9779C13.0313 43.9665 8.96835 39.9354 8.95915 33.9593C8.95224 28.9158 8.94533 23.8747 8.95915 18.8312C8.97526 12.8892 13.0912 8.85586 19.1154 8.85358C24.2971 8.85358 29.4766 8.84903 34.6583 8.85358C40.3119 8.85813 44.4854 12.8824 44.5936 18.4855C44.6442 21.138 44.6028 23.7928 44.6028 26.4476ZM26.7741 11.9247C24.1268 11.9247 21.4795 11.8951 18.8346 11.9315C14.8292 11.9884 12.0668 14.7501 12.0484 18.7198C12.0231 23.836 12.0277 28.9522 12.0484 34.0685C12.0645 38.1564 14.8637 40.9091 19.0049 40.9227C24.1843 40.9386 29.3615 40.9409 34.5409 40.9227C38.7259 40.9091 41.4974 38.1291 41.5066 33.9593C41.5158 28.9568 41.5135 23.9543 41.5066 18.9518C41.4997 14.6546 38.7443 11.9429 34.3728 11.9247C31.8407 11.9156 29.3085 11.9247 26.7764 11.9247H26.7741Z" fill="white"/>
<path d="M36.5071 26.4408C36.5071 31.7186 32.0965 36.0431 26.7329 36.0227C21.42 36.0045 17.1245 31.7095 17.1245 26.4204C17.1245 21.1654 21.4729 16.8317 26.7536 16.8203C32.085 16.8112 36.5071 21.1722 36.5071 26.4408ZM26.7905 32.7696C30.271 32.765 33.1485 29.9305 33.1853 26.4681C33.2222 23.0717 30.2987 20.1735 26.8112 20.1485C23.326 20.1235 20.3956 22.9625 20.3657 26.3908C20.3335 29.8714 23.2569 32.7719 26.7905 32.7673V32.7696Z" fill="white"/>
<path d="M38.3599 16.9884C38.3783 18.1122 37.4874 19.029 36.3594 19.0494C35.2223 19.0722 34.3153 18.1918 34.3015 17.0544C34.2854 15.9056 35.1532 15.007 36.2927 14.9933C37.423 14.9797 38.3437 15.8669 38.3622 16.9861L38.3599 16.9884Z" fill="white"/>
</svg>
