<?xml version="1.0" encoding="UTF-8"?>
<svg id="Camada_1" data-name="Camada 1" xmlns="http://www.w3.org/2000/svg" viewBox="0 0 53.55 52.92">
  <defs>
    <style>
      .cls-1 {
        fill: #f5f5f5;
        stroke-width: 0px;
      }
    </style>
  </defs>
  <path class="cls-1" d="m26.77,3c13.11,0,23.77,10.52,23.77,23.46s-10.67,23.46-23.77,23.46S3,39.39,3,26.46,13.67,3,26.77,3m0-3C11.99,0,0,11.85,0,26.46s11.99,26.46,26.77,26.46,26.77-11.85,26.77-26.46S41.56,0,26.77,0h0Z"/>
  <path class="cls-1" d="m42.53,26.44c0,2.25.01,4.49,0,6.73-.03,5.18-3.69,8.76-8.94,8.76-4.54,0-9.09,0-13.63,0-5.33-.01-8.92-3.57-8.93-8.85,0-4.46-.01-8.91,0-13.37.01-5.25,3.65-8.81,8.97-8.82,4.58,0,9.16,0,13.73,0,5,0,8.68,3.56,8.78,8.51.04,2.34,0,4.69,0,7.04Zm-15.75-12.83c-2.34,0-4.68-.03-7.02,0-3.54.05-5.98,2.49-6,6-.02,4.52-.02,9.04,0,13.56.01,3.61,2.49,6.04,6.15,6.06,4.58.01,9.15.02,13.73,0,3.7-.01,6.15-2.47,6.16-6.15,0-4.42,0-8.84,0-13.26,0-3.8-2.44-6.19-6.3-6.21-2.24,0-4.48,0-6.71,0h0Z"/>
  <path class="cls-1" d="m35.38,26.44c0,4.66-3.9,8.49-8.64,8.47-4.69-.02-8.49-3.81-8.49-8.49s3.84-8.47,8.51-8.48c4.71,0,8.62,3.85,8.62,8.5Zm-8.59,5.59c3.08,0,5.62-2.51,5.65-5.57.03-3-2.55-5.56-5.63-5.58-3.08-.02-5.67,2.49-5.7,5.52-.03,3.08,2.55,5.64,5.68,5.63h0Z"/>
  <path class="cls-1" d="m37.01,18.09c.02.99-.77,1.8-1.77,1.82-1,.02-1.81-.76-1.82-1.76-.01-1.02.75-1.81,1.76-1.82,1-.01,1.81.77,1.83,1.76h0Z"/>
</svg>