<svg width="98" height="98" viewBox="0 0 98 98" fill="none" xmlns="http://www.w3.org/2000/svg">
<path d="M98 50.5312C98 59.9864 90.6383 68.0217 81.24 68.8248C80.4041 68.8935 79.6549 68.2707 79.5846 67.4288C79.5128 66.5862 80.1364 65.8452 80.9798 65.7727C88.8065 65.1043 94.9375 58.4096 94.9375 50.5312C94.9375 42.6126 88.7572 35.9178 80.8661 35.2905C80.3398 35.2487 79.8717 34.9384 79.6295 34.4703C79.3857 34.0023 79.4007 33.4423 79.6669 32.9869C80.6418 31.3323 81.1562 29.4564 81.1562 27.5625C81.1562 21.6521 76.3472 16.8438 70.4375 16.8438C70.0293 16.8438 69.633 16.8707 69.2248 16.923C68.5354 17.0202 67.846 16.6097 67.5963 15.9435C64.6968 8.23869 57.2245 3.0625 49 3.0625C40.1624 3.0625 32.2991 8.99684 29.8773 17.4927C29.6582 18.2614 28.8784 18.7287 28.1038 18.5746C27.4414 18.4423 26.7445 18.375 26.0312 18.375C20.1208 18.375 15.3125 23.1833 15.3125 29.0938C15.3125 30.5891 15.6243 32.0561 16.2396 33.4535C16.425 33.8752 16.4108 34.3574 16.2007 34.7679C15.9914 35.1776 15.6078 35.4715 15.1577 35.5679C8.14897 37.0655 3.0625 43.3587 3.0625 50.5312C3.0625 58.4096 9.19348 65.1043 17.0195 65.7727C17.8621 65.8452 18.4872 66.5862 18.4154 67.4288C18.3466 68.2274 17.6782 68.83 16.8909 68.83C16.8475 68.83 16.8034 68.8285 16.7593 68.8248C7.36166 68.0217 0 59.9864 0 50.5312C0 42.5131 5.29807 35.4102 12.8235 33.0213C12.4422 31.7435 12.25 30.4284 12.25 29.0938C12.25 21.4951 18.4326 15.3125 26.0312 15.3125C26.4716 15.3125 26.9075 15.3327 27.3382 15.3731C30.53 6.25659 39.2517 0 49 0C58.1038 0 66.409 5.49471 70.0248 13.788C77.7678 13.5345 84.2188 19.8255 84.2188 27.5625C84.2188 29.265 83.8972 30.954 83.2767 32.5421C91.6896 34.2483 98 41.7647 98 50.5312ZM71.9688 33.6875H26.0312C24.3976 33.6875 22.8603 34.3253 21.7022 35.4834C20.544 36.6416 19.9062 38.1788 19.9062 39.8125C19.9062 43.1898 22.654 45.9375 26.0312 45.9375H28.2055C29.0511 45.9375 29.7368 45.2519 29.7368 44.4062C29.7368 43.5606 29.0511 42.875 28.2055 42.875H26.0312C24.3422 42.875 22.9688 41.5015 22.9688 39.8125C22.9688 38.9968 23.288 38.2282 23.8675 37.6487C24.4469 37.0693 25.2155 36.75 26.0312 36.75H71.9688C73.657 36.75 75.0312 38.1235 75.0312 39.8125C75.0312 40.6282 74.7127 41.3968 74.1325 41.9763C73.5523 42.5557 72.7837 42.875 71.9688 42.875H69.7945C68.9481 42.875 68.2632 43.5606 68.2632 44.4062C68.2632 45.2519 68.9481 45.9375 69.7945 45.9375H71.9688C73.6017 45.9375 75.1404 45.2997 76.2978 44.1416C77.4567 42.9834 78.0938 41.4462 78.0938 39.8125C78.0938 36.4352 75.3468 33.6875 71.9688 33.6875ZM78.0938 68.9062C78.0938 84.9485 65.0422 98 49 98C32.9578 98 19.9062 84.9485 19.9062 68.9062C19.9062 52.864 32.9578 39.8125 49 39.8125C65.0422 39.8125 78.0938 52.864 78.0938 68.9062ZM75.0312 68.9062C75.0312 54.5523 63.354 42.875 49 42.875C34.646 42.875 22.9688 54.5523 22.9688 68.9062C22.9688 83.2602 34.646 94.9375 49 94.9375C63.354 94.9375 75.0312 83.2602 75.0312 68.9062ZM70.4375 68.9062C70.4375 80.7271 60.8208 90.3438 49 90.3438C37.1792 90.3438 27.5625 80.7271 27.5625 68.9062C27.5625 57.0854 37.1792 47.4688 49 47.4688C60.8208 47.4688 70.4375 57.0854 70.4375 68.9062ZM67.375 68.9062C67.375 58.7744 59.1326 50.5312 49 50.5312C38.8682 50.5312 30.625 58.7744 30.625 68.9062C30.625 79.0381 38.8682 87.2812 49 87.2812C59.1326 87.2812 67.375 79.0381 67.375 68.9062ZM50.5312 61.25V67.375C53.9093 67.375 56.6562 70.1227 56.6562 73.5C56.6562 76.8773 53.9093 79.625 50.5312 79.625V81.1562C50.5312 82.0019 49.8456 82.6875 49 82.6875C48.1544 82.6875 47.4688 82.0019 47.4688 81.1562V79.625H42.875C42.0294 79.625 41.3438 78.9394 41.3438 78.0938C41.3438 77.2481 42.0294 76.5625 42.875 76.5625H47.4688V70.4375C44.0915 70.4375 41.3438 67.6898 41.3438 64.3125C41.3438 60.9352 44.0915 58.1875 47.4688 58.1875V56.6562C47.4688 55.8106 48.1544 55.125 49 55.125C49.8456 55.125 50.5312 55.8106 50.5312 56.6562V58.1875H55.125C55.9714 58.1875 56.6562 58.8731 56.6562 59.7188C56.6562 60.5644 55.9714 61.25 55.125 61.25H50.5312ZM50.5312 70.4375V76.5625C52.2195 76.5625 53.5938 75.189 53.5938 73.5C53.5938 71.811 52.2195 70.4375 50.5312 70.4375ZM47.4688 61.25C45.7797 61.25 44.4062 62.6235 44.4062 64.3125C44.4062 66.0015 45.7797 67.375 47.4688 67.375V61.25Z" fill="black"/>
</svg>
