<?xml version="1.0" encoding="utf-8"?>
<!-- Generator: Adobe Illustrator 27.9.0, SVG Export Plug-In . SVG Version: 6.00 Build 0)  -->
<svg version="1.1" id="Camada_1" xmlns="http://www.w3.org/2000/svg" xmlns:xlink="http://www.w3.org/1999/xlink" x="0px" y="0px"
	 viewBox="0 0 53 53" style="enable-background:new 0 0 53 53;" xml:space="preserve">
<g>
	<path d="M46.6,0C33.2,0,19.8,0,6.5,0C2.6,0,0,2.6,0,6.4c0,13.4,0,26.7,0,40.1C0,50.4,2.6,53,6.5,53c6.7,0,13.3,0,20,0
		c6.7,0,13.4,0,20.1,0c3.8,0,6.4-2.6,6.4-6.4c0-13.4,0-26.8,0-40.2C53,2.6,50.4,0,46.6,0z M48.2,46.5c0,1.4-0.3,1.7-1.7,1.7
		c-13.3,0-26.6,0-39.9,0c-1.4,0-1.7-0.3-1.7-1.7c0-13.3,0-26.6,0-40c0-1.3,0.3-1.7,1.7-1.7c13.3,0,26.6,0,40,0
		c1.4,0,1.7,0.3,1.7,1.7c0,6.7,0,13.4,0,20.1C48.2,33.2,48.2,39.8,48.2,46.5z"/>
	<path d="M42.9,25.8c-0.5-2.3-1.7-4.2-4-5.2c-1.8-0.7-3.7-0.9-5.6-0.5c-2.2,0.4-4,1.6-5.3,3.5c0-0.8,0-1.7,0-2.5
		c0-0.5-0.2-0.6-0.6-0.6c-1.9,0-3.8,0-5.6,0c-0.5,0-0.6,0.2-0.6,0.6c0,7.2,0,14.5,0,21.7c0,0.5,0.1,0.6,0.6,0.6c2,0,3.9,0,5.9,0
		c0.5,0,0.7-0.1,0.6-0.7c0-3.8,0-7.6,0-11.4c0-1.1,0.2-2.3,0.7-3.3c0.7-1.4,2.3-2.1,4.1-1.9c1.5,0.2,2.4,1,2.9,2.7
		c0.2,0.9,0.3,1.8,0.3,2.7c0,3.7,0,7.5,0,11.2c0,0.4,0.1,0.6,0.6,0.6c2,0,4,0,5.9,0c0.5,0,0.6-0.2,0.6-0.6c0-4.2,0-8.5,0-12.7
		C43.3,28.6,43.2,27.2,42.9,25.8z"/>
	<path d="M16.8,21.1c0-0.5-0.1-0.6-0.6-0.6c-2,0-3.9,0-5.9,0c-0.6,0-0.7,0.1-0.7,0.7c0,3.6,0,7.2,0,10.8c0,3.6,0,7.2,0,10.8
		c0,0.5,0.1,0.6,0.6,0.6c2,0,4,0,5.9,0c0.5,0,0.6-0.1,0.6-0.6C16.8,35.5,16.8,28.3,16.8,21.1z"/>
	<path d="M13.1,9C10.8,9,9,10.8,9,13.1c0,2.3,1.9,4.2,4.2,4.1c2.3,0,4.1-1.9,4.1-4.1C17.2,10.8,15.4,8.9,13.1,9z"/>
</g>
</svg>
