<svg width="102" height="102" viewBox="0 0 102 102" fill="none" xmlns="http://www.w3.org/2000/svg">
<path d="M13.2628 21.7804H26.7147C27.4609 21.7804 28.1397 21.4759 28.6307 20.9862C29.1204 20.4953 29.4248 19.8165 29.4248 19.0703V5.61706L13.2628 21.7804ZM89.3846 24.3117L96.9863 28.7006L98.1353 26.7082C98.7351 25.6693 98.8543 24.471 98.5628 23.3828C98.2714 22.2972 97.5666 21.3192 96.5251 20.7181C95.4849 20.1157 94.2866 19.9965 93.1971 20.288C92.1128 20.5782 91.136 21.2803 90.535 22.3206L89.3846 24.3117ZM95.3488 31.5364L87.7472 27.1487L65.7258 65.2854L73.3314 69.6756L95.3488 31.5364ZM70.953 72.0839L64.832 68.5512L63.8008 77.4043L70.953 72.0839ZM98.0006 17.7878L98.283 17.9445C100.046 19.0042 101.239 20.6792 101.737 22.5356C102.245 24.4295 102.032 26.523 100.975 28.3535L81.0562 62.8486V87.1668C81.0562 89.0154 80.2996 90.6982 79.0793 91.9198L79.0702 91.9301C77.8473 93.1517 76.1633 93.9096 74.3134 93.9096H73.4117V94.8125C73.4117 96.6598 72.6539 98.3465 71.4323 99.5694L71.4219 99.5798C70.2016 100.796 68.5175 101.555 66.6702 101.555H6.74281C4.89291 101.555 3.20882 100.797 1.98592 99.5759L1.97685 99.5655C0.756541 98.3439 0 96.6611 0 94.8125V14.3872C0 12.5322 0.760428 10.8429 1.97944 9.62388C3.19976 8.40357 4.88772 7.64573 6.74281 7.64573H22.7429L29.9067 0.481907C30.2047 0.183954 30.6153 0 31.07 0H74.3134C76.1684 0 77.8577 0.760428 79.0767 1.97944C80.2957 3.19846 81.0562 4.88772 81.0562 6.7428V32.1802L87.6979 20.6766C88.7511 18.8501 90.4572 17.6207 92.3499 17.1142C94.1868 16.6206 96.2103 16.811 98.0006 17.7878ZM77.7657 68.5473L75.351 72.729C75.2357 72.9311 75.0829 73.0982 74.9067 73.2291L62.7061 82.3076C61.9794 82.8465 60.9508 82.6936 60.4119 81.9669C60.1541 81.6197 60.0544 81.2025 60.101 80.8035L61.8563 65.6986C61.8874 65.4214 61.9872 65.1688 62.1349 64.9537L77.7657 37.8802V6.7428C77.7657 5.79583 77.3745 4.93047 76.7501 4.30607C76.1257 3.68166 75.2603 3.29044 74.3134 3.29044H32.7152V19.0703C32.7152 20.7168 32.0403 22.2156 30.9547 23.3038C29.8601 24.3959 28.3612 25.0708 26.7147 25.0708H10.9297L10.9284 87.1668C10.9349 88.1138 11.3261 88.9791 11.9505 89.6035C12.5749 90.2279 13.439 90.6191 14.3859 90.6191H74.3134C75.2655 90.6191 76.1296 90.2318 76.7501 89.61C77.3784 88.983 77.7657 88.1189 77.7657 87.1668V68.5473ZM17.9031 82.6871C16.995 82.6871 16.2579 81.95 16.2579 81.0419C16.2579 80.1338 16.995 79.3967 17.9031 79.3967H54.7625C55.6706 79.3967 56.4077 80.1338 56.4077 81.0419C56.4077 81.95 55.6706 82.6871 54.7625 82.6871H17.9031ZM17.9031 71.3222C16.995 71.3222 16.2579 70.5851 16.2579 69.6769C16.2579 68.7688 16.995 68.0317 17.9031 68.0317H56.0851C56.9932 68.0317 57.7303 68.7688 57.7303 69.6769C57.7303 70.5851 56.9932 71.3222 56.0851 71.3222H17.9031ZM17.9031 59.9585C16.995 59.9585 16.2579 59.2214 16.2579 58.3133C16.2579 57.4052 16.995 56.6681 17.9031 56.6681H60.9107C61.8188 56.6681 62.5559 57.4052 62.5559 58.3133C62.5559 59.2214 61.8188 59.9585 60.9107 59.9585H17.9031ZM17.9031 48.5935C16.995 48.5935 16.2579 47.8564 16.2579 46.9483C16.2579 46.0402 16.995 45.3031 17.9031 45.3031H67.4721C68.3802 45.3031 69.1173 46.0402 69.1173 46.9483C69.1173 47.8564 68.3802 48.5935 67.4721 48.5935H17.9031ZM17.9031 37.2286C16.995 37.2286 16.2579 36.4915 16.2579 35.5834C16.2579 34.6752 16.995 33.9381 17.9031 33.9381H70.7975C71.7056 33.9381 72.4427 34.6752 72.4427 35.5834C72.4427 36.4915 71.7056 37.2286 70.7975 37.2286H17.9031ZM39.6109 24.0992C38.7028 24.0992 37.9657 23.3621 37.9657 22.454C37.9657 21.5459 38.7028 20.8088 39.6109 20.8088H70.8688C71.7769 20.8088 72.514 21.5459 72.514 22.454C72.514 23.3621 71.7769 24.0992 70.8688 24.0992H39.6109ZM39.6109 12.5412C38.7028 12.5412 37.9657 11.8041 37.9657 10.896C37.9657 9.9879 38.7028 9.25079 39.6109 9.25079H70.8688C71.7769 9.25079 72.514 9.9879 72.514 10.896C72.514 11.8041 71.7769 12.5412 70.8688 12.5412H39.6109ZM19.4524 10.9362H6.74281C5.79583 10.9362 4.93047 11.3261 4.30607 11.9505C3.68166 12.5749 3.29044 13.4403 3.29044 14.3872V94.8125C3.29044 95.7647 3.67778 96.6287 4.29959 97.2492C4.92659 97.8775 5.79065 98.2649 6.74281 98.2649H66.6702C67.6211 98.2649 68.4851 97.8762 69.1057 97.2557C69.7339 96.6287 70.1213 95.7634 70.1213 94.8125V93.9096H14.3859C12.5309 93.9096 10.8429 93.1492 9.62388 91.9301C8.40486 90.7111 7.64444 89.0219 7.64444 87.1668L7.65221 23.559C7.61464 23.0939 7.77269 22.6172 8.12764 22.2623L19.4524 10.9362Z" fill="black"/>
</svg>
