<svg width="103" height="103" viewBox="0 0 103 103" fill="none" xmlns="http://www.w3.org/2000/svg">
<path fill-rule="evenodd" clip-rule="evenodd" d="M20.9891 14.7686H10.7455C6.60527 14.7686 3.22127 18.1525 3.22127 22.2929V32.4272H90.6268V22.2929C90.6268 18.1526 87.2429 14.7686 83.1025 14.7686H74.083V17.9077C74.083 22.0131 70.7297 25.3664 66.6243 25.3664C62.519 25.3664 59.1656 22.0131 59.1656 17.9077V14.7686H35.9191V17.9077C35.9191 22.0131 32.5658 25.3664 28.4605 25.3664C24.3551 25.3664 21.0018 22.0131 21.0018 17.9077V14.7686H20.9891ZM10.7455 11.5508H20.9891V7.45869C20.9891 3.35334 24.3425 0 28.4478 0C32.5532 0 35.9065 3.35334 35.9065 7.45869V11.5508H59.153V7.45869C59.153 3.35334 62.5063 0 66.6117 0C70.717 0 74.0704 3.35334 74.0704 7.45869V11.5508H83.0898C89.0096 11.5508 93.8363 16.3732 93.8363 22.2929V64.2776C99.004 65.0602 103 69.5502 103 74.9278V92.2323C103 98.1564 98.1558 103.001 92.2274 103.001H74.9229C69.576 103.001 65.0596 99.0438 64.2727 93.8368L10.7464 93.8412C4.8267 93.8412 0 89.0145 0 83.0948V22.2935C0 16.3737 4.8258 11.5508 10.7455 11.5508ZM69.615 4.46821C70.3845 5.23768 70.8611 6.30006 70.8611 7.46305V17.9121C70.8611 19.0751 70.3845 20.1375 69.615 20.907C66.9175 23.6045 62.3794 21.6283 62.3794 17.9121V7.46305C62.3794 3.74686 66.9176 1.77511 69.615 4.46821ZM31.4469 4.46821C32.2164 5.23768 32.6929 6.30006 32.6929 7.46305V17.9121C32.6929 19.0751 32.2164 20.1375 31.4469 20.907C28.7538 23.6045 24.2113 21.6283 24.2113 17.9121V7.46305C24.2113 3.74686 28.7494 1.77511 31.4469 4.46821ZM70.1344 43.0684C67.4718 43.0684 65.2989 45.2412 65.2989 47.9038V53.9984C65.2989 56.6609 67.4718 58.8338 70.1344 58.8338H76.2289C78.8915 58.8338 81.0643 56.6609 81.0643 53.9984V47.9038C81.0643 45.2412 78.8915 43.0684 76.2289 43.0684H70.1344ZM76.2289 46.2862H70.1344C69.2512 46.2862 68.5167 47.0163 68.5167 47.9038V53.9984C68.5167 54.8815 69.2468 55.616 70.1344 55.616H76.2289C77.1121 55.616 77.8466 54.8859 77.8466 53.9984V47.9038C77.8466 47.0206 77.1164 46.2862 76.2289 46.2862ZM43.8808 43.0684C41.2183 43.0684 39.0454 45.2412 39.0454 47.9038V53.9984C39.0454 56.6609 41.2183 58.8338 43.8808 58.8338H49.9754C52.6379 58.8338 54.8108 56.6609 54.8108 53.9984V47.9038C54.8108 45.2412 52.6379 43.0684 49.9754 43.0684H43.8808ZM49.9754 46.2862H43.8808C42.9933 46.2862 42.2632 47.0163 42.2632 47.9038V53.9984C42.2632 54.8815 42.9933 55.616 43.8808 55.616H49.9754C50.8585 55.616 51.593 54.8859 51.593 53.9984V47.9038C51.593 47.0206 50.8629 46.2862 49.9754 46.2862ZM17.6273 43.0684C14.9647 43.0684 12.7918 45.2412 12.7918 47.9038V53.9984C12.7918 56.6609 14.9647 58.8338 17.6273 58.8338H23.7218C26.3844 58.8338 28.5573 56.6609 28.5573 53.9984V47.9038C28.5573 45.2412 26.3844 43.0684 23.7218 43.0684H17.6273ZM23.7218 46.2862H17.6273C16.7398 46.2862 16.0096 47.0163 16.0096 47.9038V53.9984C16.0096 54.8815 16.7398 55.616 17.6273 55.616H23.7218C24.6094 55.616 25.3395 54.8859 25.3395 53.9984V47.9038C25.3395 47.0206 24.6093 46.2862 23.7218 46.2862ZM43.886 67.4419C41.2234 67.4419 39.0505 69.6148 39.0505 72.2774V78.3719C39.0505 81.0345 41.2234 83.2073 43.886 83.2073H49.9805C52.6431 83.2073 54.816 81.0345 54.816 78.3719V72.2774C54.816 69.6148 52.6431 67.4419 49.9805 67.4419H43.886ZM49.9805 70.6597H43.886C42.9984 70.6597 42.2683 71.3898 42.2683 72.2774V78.3719C42.2683 79.2594 42.9985 79.9895 43.886 79.9895H49.9805C50.8637 79.9895 51.5982 79.2594 51.5982 78.3719V72.2774C51.5982 71.3898 50.868 70.6597 49.9805 70.6597ZM17.6324 67.4419C14.9699 67.4419 12.797 69.6148 12.797 72.2774V78.3719C12.797 81.0345 14.9699 83.2073 17.6324 83.2073H23.727C26.3895 83.2073 28.5624 81.0345 28.5624 78.3719V72.2774C28.5624 69.6148 26.3895 67.4419 23.727 67.4419H17.6324ZM23.727 70.6597H17.6324C16.7449 70.6597 16.0148 71.3898 16.0148 72.2774V78.3719C16.0148 79.2594 16.7449 79.9895 17.6324 79.9895H23.727C24.6145 79.9895 25.3446 79.2594 25.3446 78.3719V72.2774C25.3446 71.3898 24.6145 70.6597 23.727 70.6597ZM74.1586 85.0262L79.488 90.3557C80.1176 90.9852 81.1363 90.9852 81.7614 90.3557L93.0321 79.085C93.6617 78.4554 93.6617 77.4367 93.0321 76.8116C92.4025 76.182 91.3838 76.182 90.7542 76.8116L80.6199 86.9459L76.4271 82.7575C75.7976 82.128 74.7788 82.128 74.1537 82.7575C73.5242 83.3871 73.5242 84.4058 74.1537 85.0309L74.1586 85.0262ZM90.6415 64.1581V35.6478H3.21925V83.0978C3.21925 87.2424 6.60315 90.622 10.7435 90.622H64.1567V74.927C64.1567 68.9986 69.0009 64.1544 74.9294 64.1544H90.6244L90.6415 64.1581ZM74.9465 99.7856H92.251C96.4044 99.7856 99.8014 96.3885 99.8014 92.2351V74.9306C99.8014 70.7772 96.4044 67.3801 92.251 67.3801H74.9465C70.7931 67.3801 67.396 70.7816 67.396 74.9306V92.2351C67.396 96.3841 70.7975 99.7856 74.9465 99.7856Z" fill="black"/>
</svg>
