<svg width="54" height="53" viewBox="0 0 54 53" fill="none" xmlns="http://www.w3.org/2000/svg">
<path d="M26.7742 52.9185C41.5611 52.9185 53.5483 41.0723 53.5483 26.4592C53.5483 11.8462 41.5611 0 26.7742 0C11.9872 0 0 11.8462 0 26.4592C0 41.0723 11.9872 52.9185 26.7742 52.9185Z" fill="black"/>
<path d="M22.0598 16.2036C23.0657 16.2036 24.0717 16.1945 25.0776 16.2059C25.6577 16.2127 26.2378 16.2446 26.8179 16.2764C27.2898 16.3015 27.7594 16.3379 28.229 16.3834C28.7193 16.4311 29.2074 16.4948 29.6977 16.5562C30.1443 16.6131 30.5931 16.67 31.0397 16.736C31.4794 16.8019 31.9191 16.8634 32.3541 16.9544C33.2312 17.1409 34.1082 17.3365 34.9784 17.5504C35.5608 17.6937 36.134 17.8689 36.7071 18.0463C37.8144 18.3875 38.9032 18.7856 39.9598 19.2588C40.5929 19.5432 41.2282 19.8253 41.8474 20.1415C42.3769 20.4122 42.8948 20.7056 43.3944 21.0287C43.8755 21.3403 44.1425 21.8181 44.2668 22.3709C44.4602 23.2194 44.23 23.9656 43.6176 24.5684C43.0629 25.1144 42.37 25.31 41.5827 25.2031C41.1983 25.1508 40.8783 24.9756 40.5445 24.8073C39.7757 24.4137 39.0206 23.9929 38.2288 23.6516C37.278 23.2422 36.3066 22.8782 35.326 22.5483C34.1335 22.1457 32.9135 21.8385 31.6705 21.6202C30.9499 21.495 30.2294 21.3745 29.5066 21.2698C28.991 21.1947 28.4707 21.1424 27.9505 21.0924C27.4694 21.0469 26.986 21.0241 26.5048 20.9832C25.1214 20.8626 23.7333 20.924 22.3475 20.9172C21.8618 20.9149 21.3784 20.9559 20.8927 20.9855C20.4507 21.0128 20.011 21.0469 19.5713 21.0924C18.9889 21.1538 18.4065 21.2266 17.8241 21.3017C17.1451 21.3904 16.4637 21.4677 15.7892 21.5906C14.8661 21.7589 13.9476 21.9614 13.0291 22.1548C12.2304 22.3254 11.5075 22.2003 10.8745 21.6588C10.2299 21.106 9.97903 20.3917 10.0803 19.5864C10.2092 18.5604 10.9297 17.8097 11.961 17.5845C12.7575 17.4116 13.5517 17.2228 14.3528 17.0636C14.8845 16.9566 15.4255 16.8884 15.9641 16.8065C16.4499 16.7337 16.9356 16.6586 17.4236 16.5972C17.7919 16.5517 18.1602 16.5199 18.5285 16.488C19.0971 16.438 19.668 16.3902 20.2366 16.347C20.6256 16.3174 21.0147 16.2992 21.4037 16.2742C21.6224 16.2605 21.8411 16.2423 22.0574 16.2264C22.0574 16.2196 22.0574 16.2127 22.0574 16.2036H22.0598Z" fill="white"/>
<path d="M22.764 24.4161C22.9712 24.4161 23.3671 24.4115 23.7654 24.4161C24.3178 24.4229 24.8703 24.4297 25.4228 24.4525C25.9822 24.4775 26.5438 24.5003 27.1032 24.5617C27.925 24.6504 28.7445 24.7641 29.5617 24.8756C30.9981 25.0713 32.4023 25.4034 33.7904 25.8197C34.7803 26.1154 35.7586 26.443 36.6955 26.873C37.6071 27.2915 38.5072 27.7351 39.3888 28.2106C40.0242 28.5518 40.3579 29.1092 40.3671 29.8485C40.3787 30.6447 40.0218 31.2317 39.329 31.5934C38.689 31.9278 38.0352 31.855 37.3999 31.5228C36.6978 31.1566 35.998 30.7744 35.2729 30.4605C34.5109 30.1306 33.7237 29.8508 32.9364 29.5869C31.9097 29.2434 30.8554 28.9886 29.785 28.8089C29.1566 28.702 28.5258 28.6087 27.8928 28.5268C27.4278 28.4654 26.9582 28.4244 26.4886 28.3858C26.0881 28.3516 25.6875 28.3243 25.2847 28.3152C24.3132 28.2948 23.3441 28.2743 22.3727 28.2834C21.7834 28.2879 21.1918 28.3403 20.6025 28.388C20.0224 28.4358 19.44 28.4768 18.8668 28.5678C17.7365 28.7475 16.6132 28.9636 15.4852 29.157C15.0754 29.2275 14.6841 29.3685 14.2537 29.348C13.6551 29.3207 13.1948 29.0569 12.8333 28.6133C12.5571 28.2766 12.4213 27.8716 12.4328 27.4371C12.4535 26.5363 13.0037 25.7856 13.9797 25.5581C14.6335 25.4057 15.2872 25.2578 15.9456 25.1372C16.5717 25.0212 17.2048 24.937 17.8378 24.8483C18.3949 24.771 18.9543 24.6982 19.5136 24.639C19.8704 24.6003 20.2319 24.589 20.591 24.564C21.2516 24.5207 21.9123 24.4775 22.7663 24.4229L22.764 24.4161Z" fill="white"/>
<path d="M22.0298 31.6007C22.504 31.6007 22.9805 31.5961 23.4547 31.6007C23.9358 31.6075 24.4169 31.6143 24.898 31.6371C25.3999 31.6621 25.9017 31.6803 26.3989 31.7462C27.4947 31.8941 28.5904 32.0465 29.6769 32.2467C30.356 32.3718 31.0282 32.5607 31.6865 32.7699C32.5406 33.0407 33.39 33.3296 34.2187 33.6663C35.052 34.0029 35.8646 34.3942 36.6197 34.8856C37.4921 35.452 37.522 36.6782 36.8798 37.3379C36.3365 37.8953 35.4341 37.9817 34.7458 37.5677C33.9793 37.1059 33.1644 36.7419 32.3311 36.4143C31.332 36.023 30.3077 35.7091 29.2557 35.493C28.6157 35.361 27.9735 35.2337 27.3266 35.1449C26.6291 35.0471 25.9247 34.9675 25.2226 34.9334C24.1959 34.8833 23.167 34.8628 22.1403 34.8628C21.5809 34.8628 21.0169 34.9038 20.4622 34.9675C19.5091 35.0767 18.5561 35.2041 17.6077 35.3565C16.9931 35.4543 16.3854 35.6067 15.7753 35.7341C14.8338 35.932 13.9683 35.4088 13.7657 34.5057C13.5655 33.6185 14.0949 32.7699 15.0295 32.5607C15.8835 32.3696 16.7445 32.2126 17.6054 32.0625C18.1303 31.9715 18.6597 31.9078 19.1892 31.8486C19.7278 31.7895 20.2688 31.7485 20.8075 31.7053C21.2149 31.6712 21.62 31.6462 22.0275 31.6189C22.0275 31.612 22.0275 31.6052 22.0275 31.6007H22.0298Z" fill="white"/>
</svg>
