<?xml version="1.0" encoding="UTF-8"?>
<svg id="Camada_1" data-name="Camada 1" xmlns="http://www.w3.org/2000/svg" viewBox="0 0 53.55 52.92">
  <defs>
    <style>
      .cls-1 {
        fill: #f5f5f5;
        stroke-width: 0px;
      }
    </style>
  </defs>
  <path class="cls-1" d="m26.77,3c13.11,0,23.77,10.52,23.77,23.46s-10.67,23.46-23.77,23.46S3,39.39,3,26.46,13.67,3,26.77,3m0-3C11.99,0,0,11.85,0,26.46s11.99,26.46,26.77,26.46,26.77-11.85,26.77-26.46S41.56,0,26.77,0h0Z"/>
  <path class="cls-1" d="m22.31,16.73c.96,0,1.91,0,2.87,0,.55,0,1.1.04,1.66.07.45.02.9.06,1.34.1.47.05.93.11,1.4.16.42.05.85.11,1.28.17.42.06.84.12,1.25.21.83.18,1.67.36,2.5.57.55.14,1.1.3,1.64.47,1.05.32,2.09.7,3.09,1.15.6.27,1.21.54,1.8.84.5.26,1,.54,1.47.84.46.3.71.75.83,1.28.18.81-.03,1.52-.62,2.09-.53.52-1.19.71-1.94.6-.37-.05-.67-.22-.99-.38-.73-.37-1.45-.77-2.2-1.1-.9-.39-1.83-.74-2.76-1.05-1.13-.38-2.29-.68-3.48-.88-.69-.12-1.37-.23-2.06-.33-.49-.07-.99-.12-1.48-.17-.46-.04-.92-.06-1.37-.1-1.32-.11-2.64-.06-3.95-.06-.46,0-.92.04-1.38.06-.42.03-.84.06-1.26.1-.55.06-1.11.13-1.66.2-.65.08-1.29.16-1.94.27-.88.16-1.75.35-2.62.54-.76.16-1.45.04-2.05-.47-.61-.53-.85-1.21-.76-1.97.12-.98.81-1.69,1.79-1.9.76-.16,1.51-.34,2.27-.5.51-.1,1.02-.17,1.53-.24.46-.07.92-.14,1.39-.2.35-.04.7-.07,1.05-.1.54-.05,1.08-.09,1.62-.13.37-.03.74-.05,1.11-.07.21-.01.42-.03.62-.05v-.02h0Z"/>
  <path class="cls-1" d="m22.98,24.54c.2,0,.57,0,.95,0,.53,0,1.05.01,1.58.03.53.02,1.07.05,1.6.1.78.08,1.56.19,2.34.3,1.37.19,2.7.5,4.02.9.94.28,1.87.59,2.76,1,.87.4,1.72.82,2.56,1.27.6.32.92.85.93,1.56.01.76-.33,1.32-.99,1.66-.61.32-1.23.25-1.83-.07-.67-.35-1.33-.71-2.02-1.01-.72-.31-1.47-.58-2.22-.83-.98-.33-1.98-.57-3-.74-.6-.1-1.2-.19-1.8-.27-.44-.06-.89-.1-1.34-.13-.38-.03-.76-.06-1.14-.07-.92-.02-1.85-.04-2.77-.03-.56,0-1.12.05-1.68.1-.55.05-1.11.08-1.65.17-1.07.17-2.14.38-3.22.56-.39.07-.76.2-1.17.18-.57-.03-1.01-.28-1.35-.7-.26-.32-.39-.71-.38-1.12.02-.86.54-1.57,1.47-1.79.62-.14,1.24-.29,1.87-.4.6-.11,1.2-.19,1.8-.27.53-.07,1.06-.14,1.59-.2.34-.04.68-.05,1.02-.07.63-.04,1.26-.08,2.07-.13h0Z"/>
  <path class="cls-1" d="m22.28,31.38c.45,0,.9,0,1.36,0,.46,0,.92.01,1.37.03.48.02.95.04,1.43.1,1.04.14,2.08.29,3.12.48.65.12,1.29.3,1.91.5.81.26,1.62.53,2.41.85.79.32,1.57.69,2.28,1.16.83.54.86,1.7.25,2.33-.52.53-1.37.61-2.03.22-.73-.44-1.5-.79-2.3-1.1-.95-.37-1.92-.67-2.92-.88-.61-.13-1.22-.25-1.83-.33-.66-.09-1.33-.17-2-.2-.98-.05-1.95-.07-2.93-.07-.53,0-1.07.04-1.6.1-.91.1-1.81.23-2.71.37-.58.09-1.16.24-1.74.36-.9.19-1.72-.31-1.91-1.17-.19-.84.31-1.65,1.2-1.85.81-.18,1.63-.33,2.45-.47.5-.09,1-.15,1.51-.2.51-.06,1.03-.1,1.54-.14.39-.03.77-.06,1.16-.08v-.02h0Z"/>
</svg>