<?xml version="1.0" encoding="UTF-8"?>
<svg id="Camada_1" data-name="Camada 1" xmlns="http://www.w3.org/2000/svg" viewBox="0 0 53.55 52.92">
  <defs>
    <style>
      .cls-1 {
        fill: #41598e;
      }

      .cls-1, .cls-2 {
        stroke-width: 0px;
      }

      .cls-2 {
        fill: #f5f5f5;
      }
    </style>
  </defs>
  <path class="cls-2" d="m26.77,52.92c14.79,0,26.77-11.85,26.77-26.46S41.56,0,26.77,0,0,11.85,0,26.46s11.99,26.46,26.77,26.46Z"/>
  <path class="cls-1" d="m22.06,16.2c1.01,0,2.01,0,3.02,0,.58,0,1.16.04,1.74.07.47.03.94.06,1.41.11.49.05.98.11,1.47.17.45.06.9.11,1.34.18.44.07.88.13,1.31.22.88.19,1.75.38,2.62.6.58.14,1.16.32,1.73.5,1.11.34,2.2.74,3.25,1.21.63.28,1.27.57,1.89.88.53.27,1.05.56,1.55.89.48.31.75.79.87,1.34.19.85-.04,1.59-.65,2.2-.55.55-1.25.74-2.03.63-.38-.05-.7-.23-1.04-.4-.77-.39-1.52-.81-2.32-1.16-.95-.41-1.92-.77-2.9-1.1-1.19-.4-2.41-.71-3.66-.93-.72-.13-1.44-.25-2.16-.35-.52-.08-1.04-.13-1.56-.18-.48-.05-.96-.07-1.45-.11-1.38-.12-2.77-.06-4.16-.07-.49,0-.97.04-1.45.07-.44.03-.88.06-1.32.11-.58.06-1.16.13-1.75.21-.68.09-1.36.17-2.03.29-.92.17-1.84.37-2.76.56-.8.17-1.52.05-2.15-.5-.64-.55-.9-1.27-.79-2.07.13-1.03.85-1.78,1.88-2,.8-.17,1.59-.36,2.39-.52.53-.11,1.07-.18,1.61-.26.49-.07.97-.15,1.46-.21.37-.05.74-.08,1.1-.11.57-.05,1.14-.1,1.71-.14.39-.03.78-.05,1.17-.07.22-.01.44-.03.65-.05v-.02h0Z"/>
  <path class="cls-1" d="m22.76,24.42c.21,0,.6,0,1,0,.55,0,1.1.01,1.66.04.56.03,1.12.05,1.68.11.82.09,1.64.2,2.46.31,1.44.2,2.84.53,4.23.94.99.3,1.97.62,2.91,1.05.91.42,1.81.86,2.69,1.34.64.34.97.9.98,1.64.01.8-.35,1.38-1.04,1.74-.64.33-1.29.26-1.93-.07-.7-.37-1.4-.75-2.13-1.06-.76-.33-1.55-.61-2.34-.87-1.03-.34-2.08-.6-3.15-.78-.63-.11-1.26-.2-1.89-.28-.47-.06-.93-.1-1.4-.14-.4-.03-.8-.06-1.2-.07-.97-.02-1.94-.04-2.91-.03-.59,0-1.18.06-1.77.1-.58.05-1.16.09-1.74.18-1.13.18-2.25.4-3.38.59-.41.07-.8.21-1.23.19-.6-.03-1.06-.29-1.42-.73-.28-.34-.41-.74-.4-1.18.02-.9.57-1.65,1.55-1.88.65-.15,1.31-.3,1.97-.42.63-.12,1.26-.2,1.89-.29.56-.08,1.12-.15,1.68-.21.36-.04.72-.05,1.08-.08.66-.04,1.32-.09,2.18-.14h0Z"/>
  <path class="cls-1" d="m22.03,31.6c.47,0,.95,0,1.42,0,.48,0,.96.01,1.44.04.5.02,1,.04,1.5.11,1.1.15,2.19.3,3.28.5.68.13,1.35.31,2.01.52.85.27,1.7.56,2.53.9.83.34,1.65.73,2.4,1.22.87.57.9,1.79.26,2.45-.54.56-1.45.64-2.13.23-.77-.46-1.58-.83-2.41-1.15-1-.39-2.02-.71-3.08-.92-.64-.13-1.28-.26-1.93-.35-.7-.1-1.4-.18-2.1-.21-1.03-.05-2.06-.07-3.08-.07-.56,0-1.12.04-1.68.1-.95.11-1.91.24-2.85.39-.61.1-1.22.25-1.83.38-.94.2-1.81-.33-2.01-1.23-.2-.89.33-1.74,1.26-1.94.85-.19,1.71-.35,2.58-.5.52-.09,1.05-.15,1.58-.21.54-.06,1.08-.1,1.62-.14.41-.03.81-.06,1.22-.09v-.02h0Z"/>
</svg>