<svg width="54" height="53" viewBox="0 0 54 53" fill="none" xmlns="http://www.w3.org/2000/svg">
<path d="M26.7742 52.9185C41.5611 52.9185 53.5483 41.0723 53.5483 26.4592C53.5483 11.8462 41.5611 0 26.7742 0C11.9872 0 0 11.8462 0 26.4592C0 41.0723 11.9872 52.9185 26.7742 52.9185Z" fill="black"/>
<path d="M9.8179 43.9438C10.1954 41.1184 10.5845 38.4613 10.8814 35.7929C10.9505 35.1605 10.8538 34.4325 10.5891 33.8547C5.06894 21.7341 14.2699 8.31679 27.7065 8.92418C37.3701 9.36096 44.8653 17.5187 44.5016 27.2029C44.1425 36.7461 35.9475 44.367 26.323 43.9598C24.3249 43.8756 22.3544 43.2318 20.3632 42.886C19.5598 42.7472 18.715 42.5607 17.9254 42.6676C15.536 42.9952 13.1627 43.4593 10.7824 43.8619C10.5269 43.9052 10.2645 43.9052 9.81329 43.9416L9.8179 43.9438ZM13.4573 40.4109C15.3219 40.0924 16.9724 39.7603 18.6367 39.551C19.2375 39.4759 19.935 39.5533 20.4898 39.7876C23.0496 40.8705 25.6761 41.3345 28.4569 41.0229C36.889 40.0765 42.8994 32.1554 41.3824 23.9521C39.8148 15.4759 31.3988 10.1094 23.0542 12.266C13.8325 14.6478 9.2355 24.7278 13.5908 33.1108C14.0765 34.0435 14.2446 34.9034 14.0673 35.9157C13.8233 37.3262 13.676 38.7548 13.4573 40.4087V40.4109Z" fill="white"/>
<path d="M13.4573 40.4114C13.676 38.7575 13.8233 37.3312 14.0673 35.9185C14.2422 34.9061 14.0742 34.0462 13.5908 33.1135C9.23547 24.7305 13.8325 14.6505 23.0542 12.2687C31.3988 10.1121 39.8148 15.4763 41.3824 23.9548C42.8994 32.1581 36.889 40.0792 28.4569 41.0256C25.6761 41.3372 23.0496 40.8732 20.4898 39.7903C19.935 39.556 19.2398 39.4764 18.6367 39.5537C16.9724 39.7653 15.3242 40.0951 13.4573 40.4136V40.4114ZM18.0796 22.4215C18.1026 22.6285 18.1188 22.9334 18.1763 23.2291C18.2316 23.5249 18.3075 23.8229 18.4088 24.105C20.3378 29.4441 23.9726 33.0817 29.4513 34.8515C32.0733 35.7001 32.8997 35.4362 34.6146 33.3069C35.517 32.1854 35.4963 31.7281 34.3131 30.8932C32.0733 29.3144 32.1653 28.6525 29.7943 31.0411C29.5273 31.3118 28.8298 31.5143 28.5421 31.3618C25.9224 29.9696 23.7793 28.0724 22.4603 25.3698C22.1449 24.7237 22.1725 24.2892 22.7135 23.6841C23.1508 23.1927 23.411 22.3169 23.3258 21.664C23.2084 20.7518 22.7227 19.8782 22.3452 19.0092C21.963 18.1334 21.2817 17.9446 20.4714 18.4291C19.0004 19.3118 18.1188 20.5698 18.0819 22.4215H18.0796Z" fill="black"/>
<path d="M18.0794 22.4193C18.1163 20.5676 18.9979 19.3096 20.4689 18.4269C21.2792 17.9423 21.9606 18.1312 22.3427 19.007C22.7225 19.876 23.2059 20.7496 23.3233 21.6618C23.4085 22.3147 23.1461 23.1928 22.711 23.6819C22.1723 24.287 22.1424 24.7215 22.4578 25.3676C23.7791 28.0701 25.9199 29.9674 28.5396 31.3596C28.8273 31.5121 29.5225 31.3073 29.7918 31.0389C32.1629 28.6502 32.0731 29.3122 34.3106 30.891C35.4938 31.7259 35.5168 32.1831 34.6122 33.3047C32.8972 35.434 32.0708 35.6979 29.4489 34.8493C23.9702 33.0795 20.3354 29.4419 18.4063 24.1027C18.3027 23.8184 18.2291 23.5226 18.1738 23.2269C18.1186 22.9312 18.1025 22.6263 18.0771 22.4193H18.0794Z" fill="white"/>
</svg>
