<?xml version="1.0" encoding="UTF-8"?>
<svg id="Camada_1" data-name="Camada 1" xmlns="http://www.w3.org/2000/svg" viewBox="0 0 53.55 52.92">
  <defs>
    <style>
      .cls-1 {
        fill: #41598e;
      }

      .cls-1, .cls-2 {
        stroke-width: 0px;
      }

      .cls-2 {
        fill: #f5f5f5;
      }
    </style>
  </defs>
  <path class="cls-2" d="m26.77,52.92c14.79,0,26.77-11.85,26.77-26.46S41.56,0,26.77,0,0,11.85,0,26.46s11.99,26.46,26.77,26.46Z"/>
  <path class="cls-1" d="m9.82,43.94c.38-2.83.77-5.48,1.06-8.15.07-.63-.03-1.36-.29-1.94-5.52-12.12,3.68-25.54,17.12-24.93,9.66.44,17.16,8.59,16.8,18.28-.36,9.54-8.55,17.16-18.18,16.76-2-.08-3.97-.73-5.96-1.07-.8-.14-1.65-.33-2.44-.22-2.39.33-4.76.79-7.14,1.19-.26.04-.52.04-.97.08h0Zm3.64-3.53c1.86-.32,3.52-.65,5.18-.86.6-.08,1.3,0,1.85.24,2.56,1.08,5.19,1.55,7.97,1.24,8.43-.95,14.44-8.87,12.93-17.07-1.57-8.48-9.98-13.84-18.33-11.69-9.22,2.38-13.82,12.46-9.46,20.84.49.93.65,1.79.48,2.8-.24,1.41-.39,2.84-.61,4.49h0Z"/>
  <path class="cls-1" d="m18.08,22.42c.04-1.85.92-3.11,2.39-3.99.81-.48,1.49-.3,1.87.58.38.87.86,1.74.98,2.65.09.65-.18,1.53-.61,2.02-.54.61-.57,1.04-.25,1.69,1.32,2.7,3.46,4.6,6.08,5.99.29.15.98-.05,1.25-.32,2.37-2.39,2.28-1.73,4.52-.15,1.18.83,1.21,1.29.3,2.41-1.72,2.13-2.54,2.39-5.16,1.54-5.48-1.77-9.11-5.41-11.04-10.75-.1-.28-.18-.58-.23-.88-.06-.3-.07-.6-.1-.81h0Z"/>
</svg>