<?xml version="1.0" encoding="UTF-8"?>
<svg id="Camada_1" data-name="Camada 1" xmlns="http://www.w3.org/2000/svg" viewBox="0 0 53.55 52.92">
  <defs>
    <style>
      .cls-1 {
        fill: #f5f4f5;
      }

      .cls-1, .cls-2 {
        stroke-width: 0px;
      }

      .cls-2 {
        fill: #f5f5f5;
      }
    </style>
  </defs>
  <path class="cls-1" d="m26.77,3c13.11,0,23.77,10.52,23.77,23.46s-10.67,23.46-23.77,23.46S3,39.39,3,26.46,13.67,3,26.77,3m0-3C11.99,0,0,11.85,0,26.46s11.99,26.46,26.77,26.46,26.77-11.85,26.77-26.46S41.56,0,26.77,0h0Z"/>
  <path class="cls-2" d="m13.07,40.71c.34-2.53.69-4.91.95-7.31.06-.57-.02-1.22-.26-1.74-4.95-10.86,3.3-22.89,15.34-22.35,8.66.39,15.38,7.7,15.05,16.38-.32,8.55-7.67,15.39-16.29,15.02-1.79-.08-3.56-.65-5.34-.96-.72-.12-1.48-.29-2.19-.2-2.14.29-4.27.71-6.4,1.07-.23.04-.46.04-.87.07h0Zm3.26-3.17c1.67-.29,3.15-.58,4.64-.77.54-.07,1.16,0,1.66.21,2.29.97,4.65,1.39,7.14,1.11,7.56-.85,12.95-7.95,11.59-15.3-1.41-7.6-8.95-12.41-16.43-10.47-8.27,2.13-12.39,11.17-8.48,18.68.44.84.59,1.61.43,2.51-.22,1.26-.35,2.54-.55,4.03h0Z"/>
  <path class="cls-2" d="m20.48,21.42c.03-1.66.82-2.79,2.14-3.58.73-.43,1.34-.27,1.68.52.34.78.77,1.56.88,2.38.08.59-.16,1.37-.55,1.81-.48.54-.51.93-.23,1.51,1.18,2.42,3.1,4.12,5.45,5.37.26.14.88-.05,1.12-.29,2.13-2.14,2.04-1.55,4.05-.13,1.06.75,1.08,1.16.27,2.16-1.54,1.91-2.28,2.15-4.63,1.38-4.91-1.59-8.17-4.85-9.9-9.63-.09-.25-.16-.52-.21-.79-.05-.27-.06-.54-.09-.72h0Z"/>
</svg>